<svg width="217" height="25" viewBox="0 0 217 25" fill="none" xmlns="http://www.w3.org/2000/svg">
<path d="M2.84 7.872C2.84 6.592 2.744 5.584 2.552 4.848C2.36 4.112 1.992 3.376 1.448 2.64L1.064 2.112L1.448 1.584H12.056C13.816 1.584 15 1.376 15.608 0.959999L16.184 0.527999L16.664 0.959999V6.96L15.704 7.296C15.128 5.568 14.552 4.384 13.976 3.744C13.432 3.104 12.648 2.784 11.624 2.784H9.464C8.632 2.784 8.088 2.944 7.832 3.264C7.576 3.552 7.448 4.192 7.448 5.184V12H10.904C11.864 12 12.568 11.904 13.016 11.712C13.496 11.52 13.848 11.136 14.072 10.56L14.312 9.888L14.936 10.272V15.648L13.88 16.032L13.688 14.976C13.56 14.304 13.208 13.84 12.632 13.584C12.056 13.328 11.128 13.2 9.848 13.2H7.448V20.448C7.448 21.408 7.592 22.048 7.88 22.368C8.168 22.656 8.808 22.8 9.8 22.8H12.152C13.112 22.8 13.864 22.464 14.408 21.792C14.984 21.12 15.528 19.952 16.04 18.288L17.048 18.624V24.384L16.52 24.816C16.072 24.496 15.56 24.272 14.984 24.144C14.408 24.048 13.608 24 12.584 24H0.536L0.2 23.136C1 22.912 1.576 22.704 1.928 22.512C2.28 22.288 2.52 22 2.648 21.648C2.776 21.296 2.84 20.752 2.84 20.016V7.872ZM38.2681 22.464C37.0841 23.776 35.6921 24.432 34.0921 24.432C33.1001 24.432 32.3641 24.224 31.8841 23.808C31.4041 23.36 31.0841 22.64 30.9241 21.648C30.0921 22.608 29.2281 23.312 28.3321 23.76C27.4361 24.208 26.4441 24.432 25.3561 24.432C23.7561 24.432 22.4441 23.728 21.4201 22.32C20.4281 20.912 19.9321 19.088 19.9321 16.848C19.9321 14.16 20.6361 12.032 22.0441 10.464C23.4521 8.864 25.3721 8.064 27.8041 8.064C28.9241 8.064 29.9481 8.32 30.8761 8.832V3.504C30.8761 3.056 30.6681 2.832 30.2521 2.832H28.6201L28.4281 2.352C29.0681 1.776 29.8841 1.328 30.8761 1.008C31.8681 0.655999 32.8441 0.48 33.8041 0.48C34.2201 0.48 34.5561 0.575999 34.8121 0.767999C35.0681 0.927999 35.1961 1.168 35.1961 1.488V21.264C35.1961 22.224 35.5001 22.704 36.1081 22.704C36.7161 22.704 37.3081 22.464 37.8841 21.984L38.2681 22.464ZM27.8521 22.128C29.0681 22.128 30.0761 21.456 30.8761 20.112V9.792C30.2361 9.472 29.5321 9.312 28.7641 9.312C26.0761 9.312 24.7321 11.632 24.7321 16.272C24.7321 18.16 24.9881 19.616 25.5001 20.64C26.0441 21.632 26.8281 22.128 27.8521 22.128ZM51.2859 19.632C50.8379 21.04 50.0539 22.192 48.9339 23.088C47.8459 23.984 46.6779 24.432 45.4299 24.432C44.0219 24.432 42.9819 23.984 42.3099 23.088C41.6379 22.192 41.3019 20.816 41.3019 18.96V11.136C41.3019 10.688 41.0939 10.464 40.6779 10.464H39.1899L39.0459 9.936C39.6859 9.392 40.4859 8.944 41.4459 8.592C42.4059 8.24 43.3499 8.064 44.2779 8.064C44.6939 8.064 45.0139 8.16 45.2379 8.352C45.4939 8.544 45.6219 8.8 45.6219 9.12V18.72C45.6219 19.808 45.7819 20.656 46.1019 21.264C46.4219 21.84 46.8699 22.128 47.4459 22.128C48.6299 22.128 49.5739 21.408 50.2779 19.968C51.0139 18.496 51.3819 16.592 51.3819 14.256C51.3819 13.008 51.2859 12.048 51.0939 11.376C50.9339 10.672 50.6299 10.064 50.1819 9.552L49.7499 9.024L50.1339 8.592L55.6539 8.16V21.264C55.6539 22.224 55.9419 22.704 56.5179 22.704C57.1259 22.704 57.7179 22.464 58.2939 21.984L58.6779 22.464C57.5579 23.776 56.1659 24.432 54.5019 24.432C53.2859 24.432 52.4379 24.08 51.9579 23.376C51.5099 22.672 51.2859 21.424 51.2859 19.632ZM74.264 12.288C74.264 13.344 73.944 14.176 73.304 14.784C72.664 15.392 71.88 15.696 70.952 15.696C70.216 15.696 69.544 15.504 68.936 15.12C69.64 14.48 69.992 13.584 69.992 12.432C69.992 11.504 69.8 10.752 69.416 10.176C69.032 9.568 68.472 9.264 67.736 9.264C66.904 9.264 66.216 9.92 65.672 11.232C65.16 12.512 64.904 14.192 64.904 16.272C64.904 18.256 65.272 19.856 66.008 21.072C66.776 22.256 67.848 22.848 69.224 22.848C70.184 22.848 71 22.672 71.672 22.32C72.376 21.968 73.032 21.456 73.64 20.784L74.216 21.168C73.544 22.128 72.664 22.912 71.576 23.52C70.488 24.128 69.224 24.432 67.784 24.432C65.544 24.432 63.704 23.68 62.264 22.176C60.824 20.672 60.104 18.736 60.104 16.368C60.104 13.84 60.856 11.824 62.36 10.32C63.864 8.816 65.864 8.064 68.36 8.064C70.12 8.064 71.544 8.464 72.632 9.264C73.72 10.032 74.264 11.04 74.264 12.288ZM81.749 13.392C81.077 13.776 80.277 13.968 79.349 13.968C78.677 13.968 78.149 13.776 77.765 13.392C77.381 12.976 77.189 12.4 77.189 11.664C77.189 10.576 77.717 9.712 78.773 9.072C79.861 8.4 81.269 8.064 82.997 8.064C85.045 8.064 86.645 8.512 87.797 9.408C88.981 10.304 89.573 11.52 89.573 13.056V21.36C89.573 22.256 89.893 22.704 90.533 22.704C91.141 22.704 91.733 22.464 92.309 21.984L92.693 22.464C91.509 23.776 90.101 24.432 88.469 24.432C87.509 24.432 86.773 24.192 86.261 23.712C85.781 23.232 85.493 22.48 85.397 21.456H85.205C84.693 22.384 84.005 23.12 83.141 23.664C82.309 24.176 81.349 24.432 80.261 24.432C79.045 24.432 78.069 24.064 77.333 23.328C76.597 22.56 76.229 21.568 76.229 20.352C76.229 18.976 76.885 17.888 78.197 17.088C79.509 16.288 81.285 15.888 83.525 15.888C83.941 15.888 84.533 15.92 85.301 15.984V13.584C85.301 12.016 85.109 10.896 84.725 10.224C84.341 9.52 83.717 9.168 82.853 9.168C82.245 9.168 81.765 9.36 81.413 9.744C81.061 10.128 80.885 10.624 80.885 11.232C80.885 12.192 81.173 12.912 81.749 13.392ZM82.469 22.032C84.357 22.032 85.301 20.32 85.301 16.896C83.701 16.896 82.501 17.168 81.701 17.712C80.901 18.224 80.501 18.96 80.501 19.92C80.501 20.56 80.677 21.072 81.029 21.456C81.381 21.84 81.861 22.032 82.469 22.032ZM118.336 17.952C118.4 19.232 118.592 20.304 118.912 21.168C119.232 22.032 119.744 22.816 120.448 23.52L120.064 24H111.712L111.376 23.136C112.432 22.848 113.104 22.56 113.392 22.272C113.712 21.984 113.872 21.456 113.872 20.688C113.872 20.272 113.616 16.384 113.104 9.024L112.816 4.848L106.336 23.28H104.992L98.5603 4.992L97.8883 15.936C97.7603 17.472 97.6963 18.544 97.6963 19.152C97.6963 19.984 97.7923 20.72 97.9843 21.36C98.2083 21.968 98.6083 22.688 99.1843 23.52L98.7523 24H93.4243L93.1363 23.136C93.9683 22.88 94.5603 22.656 94.9123 22.464C95.2963 22.272 95.5523 22 95.6803 21.648C95.8403 21.296 95.9523 20.752 96.0163 20.016L96.5923 10.8C96.7523 8.656 96.8323 7.248 96.8323 6.576C96.8323 5.488 96.7043 4.688 96.4483 4.176C96.2243 3.664 95.6963 3.008 94.8643 2.208L95.2003 1.584H102.208L107.152 16.512L112.384 1.584H118.576L119.056 2.112C118.448 3.008 118.032 3.744 117.808 4.32C117.616 4.896 117.52 5.648 117.52 6.576C117.52 7.184 117.584 8.128 117.712 9.408L118.336 17.952ZM122.542 16.272C122.542 13.744 123.262 11.744 124.702 10.272C126.174 8.8 128.158 8.064 130.654 8.064C133.15 8.064 135.134 8.816 136.606 10.32C138.078 11.792 138.814 13.776 138.814 16.272C138.814 18.768 138.078 20.752 136.606 22.224C135.134 23.696 133.15 24.432 130.654 24.432C128.158 24.432 126.174 23.696 124.702 22.224C123.262 20.752 122.542 18.768 122.542 16.272ZM133.966 16.368C133.966 14.224 133.662 12.48 133.054 11.136C132.446 9.76 131.678 9.072 130.75 9.072C129.726 9.072 128.894 9.744 128.254 11.088C127.614 12.4 127.294 14.128 127.294 16.272C127.294 18.448 127.582 20.176 128.158 21.456C128.766 22.736 129.566 23.376 130.558 23.376C131.55 23.376 132.366 22.736 133.006 21.456C133.646 20.144 133.966 18.448 133.966 16.368ZM157.714 21.264C157.714 22.224 158.018 22.704 158.626 22.704C159.234 22.704 159.826 22.464 160.402 21.984L160.786 22.464C159.602 23.776 158.21 24.432 156.61 24.432C155.458 24.432 154.626 24.144 154.114 23.568C153.634 22.96 153.394 21.984 153.394 20.64V13.296C153.394 11.44 152.802 10.512 151.618 10.512C150.466 10.512 149.522 11.296 148.786 12.864C148.082 14.432 147.73 16.48 147.73 19.008C147.73 19.968 147.81 20.752 147.97 21.36C148.13 21.936 148.386 22.496 148.738 23.04L149.122 23.52L148.738 24H141.778L141.49 23.184L142.162 23.04C142.674 22.912 143.01 22.72 143.17 22.464C143.33 22.176 143.41 21.632 143.41 20.832V11.472C143.41 10.864 143.202 10.56 142.786 10.56H141.25L141.106 10.032C141.746 9.488 142.546 9.04 143.506 8.688C144.466 8.336 145.426 8.16 146.386 8.16C146.802 8.16 147.122 8.256 147.346 8.448C147.602 8.64 147.73 8.896 147.73 9.216V13.344C148.178 11.84 148.978 10.592 150.13 9.6C151.282 8.576 152.498 8.064 153.778 8.064C155.154 8.064 156.146 8.512 156.754 9.408C157.394 10.304 157.714 11.728 157.714 13.68V21.264ZM168.246 21.264C168.246 22.224 168.55 22.704 169.158 22.704C169.766 22.704 170.358 22.464 170.934 21.984L171.318 22.464C170.134 23.776 168.742 24.432 167.142 24.432C165.99 24.432 165.158 24.144 164.646 23.568C164.134 22.96 163.878 21.984 163.878 20.64V11.136C163.878 10.688 163.67 10.464 163.254 10.464H161.766L161.622 9.936C162.262 9.392 163.062 8.944 164.022 8.592C164.982 8.24 165.942 8.064 166.902 8.064C167.286 8.064 167.606 8.16 167.862 8.352C168.118 8.544 168.246 8.8 168.246 9.12V21.264ZM163.398 3.456C163.398 2.88 163.718 2.24 164.358 1.536C164.998 0.831999 165.59 0.48 166.134 0.48C166.71 0.48 167.318 0.831999 167.958 1.536C168.63 2.24 168.966 2.88 168.966 3.456C168.966 4.064 168.63 4.72 167.958 5.424C167.318 6.096 166.71 6.432 166.134 6.432C165.59 6.432 164.998 6.096 164.358 5.424C163.718 4.72 163.398 4.064 163.398 3.456ZM177.698 24.432C176.386 24.432 175.442 24.144 174.866 23.568C174.29 22.96 174.002 21.984 174.002 20.64V10.464H171.602C171.602 9.92 171.634 9.568 171.698 9.408C171.762 9.248 171.954 9.12 172.274 9.024C173.33 8.736 174.162 8.288 174.77 7.68C175.378 7.072 175.874 6.192 176.258 5.04C176.354 4.688 176.514 4.48 176.738 4.416C176.962 4.32 177.506 4.272 178.37 4.272V8.592H182.306C182.306 9.008 182.242 9.392 182.114 9.744C181.986 10.064 181.81 10.304 181.586 10.464H178.37V21.264C178.37 22.224 178.77 22.704 179.57 22.704C179.922 22.704 180.306 22.592 180.722 22.368C181.17 22.144 181.57 21.84 181.922 21.456L182.306 21.936C180.93 23.6 179.394 24.432 177.698 24.432ZM183.76 16.272C183.76 13.744 184.48 11.744 185.92 10.272C187.392 8.8 189.376 8.064 191.872 8.064C194.368 8.064 196.352 8.816 197.824 10.32C199.296 11.792 200.032 13.776 200.032 16.272C200.032 18.768 199.296 20.752 197.824 22.224C196.352 23.696 194.368 24.432 191.872 24.432C189.376 24.432 187.392 23.696 185.92 22.224C184.48 20.752 183.76 18.768 183.76 16.272ZM195.184 16.368C195.184 14.224 194.88 12.48 194.272 11.136C193.664 9.76 192.896 9.072 191.968 9.072C190.944 9.072 190.112 9.744 189.472 11.088C188.832 12.4 188.512 14.128 188.512 16.272C188.512 18.448 188.8 20.176 189.376 21.456C189.984 22.736 190.784 23.376 191.776 23.376C192.768 23.376 193.584 22.736 194.224 21.456C194.864 20.144 195.184 18.448 195.184 16.368ZM212.693 8.064C213.717 8.064 214.549 8.368 215.189 8.976C215.829 9.552 216.149 10.304 216.149 11.232C216.149 12.096 215.893 12.8 215.381 13.344C214.869 13.856 214.197 14.112 213.365 14.112C212.725 14.112 212.133 13.984 211.589 13.728C212.165 13.248 212.453 12.528 212.453 11.568C212.453 11.12 212.357 10.768 212.165 10.512C211.973 10.256 211.717 10.128 211.397 10.128C210.629 10.128 209.989 10.912 209.477 12.48C208.965 14.016 208.709 15.936 208.709 18.24C208.709 19.424 208.773 20.368 208.901 21.072C209.061 21.776 209.317 22.432 209.669 23.04L210.053 23.52L209.669 24H202.709L202.421 23.184L203.093 23.04C203.605 22.912 203.941 22.72 204.101 22.464C204.261 22.176 204.341 21.632 204.341 20.832V11.472C204.341 10.864 204.133 10.56 203.717 10.56H202.229L202.037 10.032C202.645 9.488 203.397 9.04 204.293 8.688C205.221 8.336 206.133 8.16 207.029 8.16C207.445 8.16 207.781 8.256 208.037 8.448C208.293 8.64 208.421 8.896 208.421 9.216V12.72H208.565C209.237 9.616 210.613 8.064 212.693 8.064Z" fill="#00DC82"/>
</svg>
